<?xml version="1.0" encoding="UTF-8"?>
<svg width="100px" height="100px" viewBox="0 0 100 100" version="1.1" xmlns="http://www.w3.org/2000/svg" xmlns:xlink="http://www.w3.org/1999/xlink">
    <title>mi:menu</title>
    <g id="Page-1" stroke="none" stroke-width="1" fill="none" fill-rule="evenodd">
        <g id="mi:menu">
            <rect id="ViewBox" fill="#FFFFFF" x="0" y="0" width="100" height="100" rx="6"></rect>
            <path d="M16.6666667,29.1666667 C16.6666667,26.8654802 18.5321469,25 20.8333333,25 L79.1666667,25 C81.4678531,25 83.3333333,26.8654802 83.3333333,29.1666667 C83.3333333,31.4678531 81.4678531,33.3333333 79.1666667,33.3333333 L20.8333333,33.3333333 C18.5321469,33.3333333 16.6666667,31.4678531 16.6666667,29.1666667 Z M16.6666667,50 C16.6666667,47.6988135 18.5321469,45.8333333 20.8333333,45.8333333 L58.3333333,45.8333333 C60.6345198,45.8333333 62.5,47.6988135 62.5,50 C62.5,52.3011865 60.6345198,54.1666667 58.3333333,54.1666667 L20.8333333,54.1666667 C18.5321469,54.1666667 16.6666667,52.3011865 16.6666667,50 Z M16.6666667,70.8333333 C16.6666667,68.5321469 18.5321469,66.6666667 20.8333333,66.6666667 L70.8333333,66.6666667 C73.1345198,66.6666667 75,68.5321469 75,70.8333333 C75,73.1345198 73.1345198,75 70.8333333,75 L20.8333333,75 C18.5321469,75 16.6666667,73.1345198 16.6666667,70.8333333 Z" id="Shape" fill="#3B5569" fill-rule="nonzero"></path>
        </g>
    </g>
</svg>